<?xml version="1.0" standalone="no"?><!DOCTYPE svg PUBLIC "-//W3C//DTD SVG 1.1//EN" "http://www.w3.org/Graphics/SVG/1.1/DTD/svg11.dtd"><svg t="1589262629687" class="icon" viewBox="0 0 1024 1024" version="1.1" xmlns="http://www.w3.org/2000/svg" p-id="1293" width="64" height="64" xmlns:xlink="http://www.w3.org/1999/xlink"><defs><style type="text/css"></style></defs><path d="M512 53.333333a202.666667 202.666667 0 0 1 202.666667 202.666667v181.333333h106.666666a21.333333 21.333333 0 0 1 21.333334 21.333334V554.666667c0 171.818667-131.050667 313.045333-298.666667 329.130666V949.333333a32 32 0 0 1-64 0v-65.536c-167.594667-16.085333-298.666667-157.312-298.666667-329.130666v-96a21.333333 21.333333 0 0 1 21.333334-21.333334h106.666666V256A202.666667 202.666667 0 0 1 512 53.333333z m-202.666667 448h-64V554.666667c0 147.285333 119.381333 266.666667 266.666667 266.666666S778.666667 701.952 778.666667 554.666667v-53.333334h-64V554.666667a202.666667 202.666667 0 0 1-405.333334 0v-53.333334z m202.666667-384a138.666667 138.666667 0 0 0-138.581333 133.696L373.333333 256h42.666667a32 32 0 0 1 0 64h-42.666667v64h42.666667a32 32 0 0 1 0 64h-42.666667v64h42.666667a32 32 0 0 1 0 64h-41.024a138.709333 138.709333 0 0 0 274.048 0H608a32 32 0 0 1 0-64h42.666667v-64h-42.666667a32 32 0 0 1 0-64h42.666667v-64h-42.666667a32 32 0 0 1 0-64h42.666667A138.666667 138.666667 0 0 0 512 117.333333z" fill="#707070" p-id="1294"></path></svg>