<?xml version="1.0" standalone="no"?><!DOCTYPE svg PUBLIC "-//W3C//DTD SVG 1.1//EN" "http://www.w3.org/Graphics/SVG/1.1/DTD/svg11.dtd"><svg t="1588600234189" class="icon" viewBox="0 0 1024 1024" version="1.1" xmlns="http://www.w3.org/2000/svg" p-id="2521" width="64" height="64" xmlns:xlink="http://www.w3.org/1999/xlink"><defs><style type="text/css"></style></defs><path d="M333.946 330H144c-8.837 0-16 7.163-16 16v329c0 8.837 7.163 16 16 16h194c0 0.077 0.037 0.15 0.1 0.196l182.68 133.497a8 8 0 0 0 12.72-6.459v-614.49a8 8 0 0 0-12.72-6.46L343.386 326.918a16 16 0 0 1-9.44 3.082zM310.26 755H128c-35.346 0-64-28.654-64-64V330c0-35.346 28.654-64 64-64h186.335a16 16 0 0 0 9.441-3.083L572.559 81.084c7.134-5.215 17.144-3.658 22.358 3.476A16 16 0 0 1 598 94v835.975c0 8.837-7.163 16-16 16a16 16 0 0 1-9.441-3.082L319.702 758.083a16 16 0 0 0-9.441-3.083zM961 512c0 284.095-250 410-263 406s-20-16.301-20-35c0-11.127 5.312-21.307 15.935-30.54a46 46 0 0 1 6.76-4.873C831.564 770.195 897 658.333 897 512c0-139.016-59.055-246.922-177.166-323.72A48 48 0 0 1 698 148.04V145c0-14.064 11.401-25.465 25.465-25.465 4.368 0 8.661 1.123 12.47 3.262C885.977 207.059 961 336.794 961 512z m-128 0c0 125.505-63.027 227.221-168 280-14 4.905-25 5-37-15s3-36 28-52.1c68.189-46.212 113-124.323 113-212.9 0-88.577-44.811-166.688-113-212.9-16-11.1-34-31.1-30-48.1s18-30 30-25.967C760.973 277.813 833 386.495 833 512z" p-id="2522" fill="#2c2c2c"></path></svg>