<?xml version="1.0" standalone="no"?><!DOCTYPE svg PUBLIC "-//W3C//DTD SVG 1.1//EN" "http://www.w3.org/Graphics/SVG/1.1/DTD/svg11.dtd"><svg t="1588600287097" class="icon" viewBox="0 0 1026 1024" version="1.1" xmlns="http://www.w3.org/2000/svg" p-id="2821" width="64.125" height="64" xmlns:xlink="http://www.w3.org/1999/xlink"><defs><style type="text/css"></style></defs><path d="M240.023158 329.356725H144.719298c-8.819774 0-15.968811 7.149037-15.968811 15.968811v328.358675c0 8.819774 7.149037 15.968811 15.968811 15.96881h193.621833c0 0.07685 0.036928 0.149708 0.099805 0.195618l182.323898 133.236772a7.984405 7.984405 0 0 0 12.695205-6.446409V622.793606l64.374269 64.374269v240.995306c0 8.819774-7.149037 15.968811-15.968811 15.968811a15.968811 15.968811 0 0 1-9.422596-3.075992L320.078799 756.605255a15.968811 15.968811 0 0 0-9.422596-3.07699H128.750487c-35.277099 0-63.875244-28.598144-63.875243-63.875244V329.356725c0-35.277099 28.598144-63.875244 63.875243-63.875244h47.397427l63.875244 63.875244zM533.460039 442.126472V203.34584a7.984405 7.984405 0 0 0-12.695205-6.446409l-134.351594 98.180242-45.171774-45.171774L572.443899 80.92694c7.120094-5.204834 17.110581-3.650869 22.314417 3.469224A15.968811 15.968811 0 0 1 597.834308 93.816764v412.683977l-64.374269-64.374269z m336.776234 336.776234l-43.516008-43.51501C873.074729 672.799938 896.251462 598.005021 896.251462 511.001949c0-138.745014-58.939883-246.440671-176.820647-323.088967A47.906433 47.906433 0 0 1 697.639376 147.751423V144.717349c0-14.036585 11.378776-25.415361 25.415361-25.415361 4.359485 0 8.644117 1.120811 12.445692 3.255642C885.249949 206.655376 960.126706 336.137481 960.126706 511.001949c0 114.37062-40.59671 203.053411-89.890433 267.900757z m-90.129965 90.537169C737.183142 902.479345 702.280312 917.638737 697.639376 916.210526c-12.974659-3.992203-19.961014-16.269224-19.961013-34.931774 0-11.10531 5.301645-21.265466 15.903937-30.480467a45.910331 45.910331 0 0 1 6.746823-4.863501c11.948663-7.066199 23.35239-14.421832 34.208187-22.063907l45.568998 45.568998z m0.504016-180.163119l-47.753731-47.753731C755.502363 603.286706 768.500975 558.661864 768.500975 511.001949c0-88.404335-44.723649-166.363072-112.779727-212.48499-15.968811-11.078363-33.933723-31.039376-29.941521-48.006238s17.964912-29.94152 29.941521-25.916382C760.489622 277.271454 832.376218 385.741598 832.376218 511.001949c0 67.674823-18.361138 128.419181-51.765894 178.274807zM688.117973 777.45154A323.332491 323.332491 0 0 1 664.703704 790.45614c-13.97271 4.895439-24.951267 4.990253-36.927876-14.97076-9.769918-16.283197-1.60786-29.909583 15.275166-43.100819l45.066979 45.065981zM90.7537 90.752749c12.472639-12.472639 32.694144-12.472639 45.166783 0L936.922027 891.753294c12.472639 12.472639 12.472639 32.694144 0 45.166784s-32.694144 12.472639-45.166783 0L90.754698 135.918534c-12.472639-12.472639-12.472639-32.694144 0-45.166784z" p-id="2822" fill="#2c2c2c"></path></svg>